#!OML:ASF E:\motion texture\Top Level 1\Subject 1\Session 1\male.ASF
:FULLY-SPECIFIED
:DEGREES
270
root -7.71423 17.7438 4.92751 207.394 -85.911 -201.281
lowerback -1.3764 -2.33109 -2.42381
upperback -1.353 -3.11449 3.0655
thorax -0.319194 -1.5476 4.47539
lowerneck -15.876 -1.59597 -4.60693
upperneck 19.844 -2.61792 6.096
head 8.97753 -0.998426 2.5153
rclavicle 2.18663e-015 1.43125e-014
rhumerus -31.8932 -21.8954 -71.077
rradius 15.8892
rwrist 24.2125
rhand -12.1248 -25.7447
rfingers 7.12502
rthumb 13.9368 -55.2576
lclavicle 2.18663e-015 1.43125e-014
lhumerus -18.8114 -4.82927 87.6161
lradius 43.7075
lwrist -11.747
lhand -14.4316 21.6093
lfingers 7.12502
lthumb 11.7129 51.2618
rfemur -34.2845 0.0314251 13.0039
rtibia 12.9842
rfoot -5.00678 -18.0371
rtoes 3.97822
lfemur 3.16978 -4.01109 -24.4637
ltibia 11.168
lfoot -16.4599 4.58439
ltoes -5.48878
271
root -7.86798 17.7128 4.9087 209.12 -85.9308 -202.82
lowerback -1.48295 -2.3589 -2.52297
upperback -1.3674 -3.14995 3.09859
thorax -0.26395 -1.56584 4.56054
lowerneck -15.8976 -1.61851 -4.61553
upperneck 19.7023 -2.66359 6.21838
head 8.93761 -1.00632 2.55144
rclavicle -3.74212e-014 2.54444e-014
rhumerus -32.6717 -23.4779 -69.9158
rradius 15.2975
rwrist 25.836
rhand -12.0121 -25.9787
rfingers 7.12502
rthumb 14.0454 -55.4841
lclavicle -3.74212e-014 2.54444e-014
lhumerus -18.453 -4.91788 87.6528
lradius 43.7058
lwrist -11.8414
lhand -14.4932 21.6148
lfingers 7.12502
lthumb 11.6535 51.2707
rfemur -34.1547 1.43132 12.1899
rtibia 10.7486
rfoot -6.03357 -18.4905
rtoes 2.07442
lfemur 3.45867 -3.86361 -24.4908
ltibia 11.3224
lfoot -16.8557 4.34662
ltoes -6.00867
272
root -8.0202 17.6816 4.88917 210.649 -85.9418 -204.17
lowerback -1.5469 -2.37672 -2.60689
upperback -1.37948 -3.1725 3.12808
thorax -0.232314 -1.57726 4.63549
lowerneck -15.9251 -1.64424 -4.62203
upperneck 19.5583 -2.71358 6.34108
head 8.89838 -1.01605 2.58673
rclavicle 1.96797e-014 -3.97569e-015
rhumerus -33.4872 -24.9365 -68.7721
rradius 14.7973
rwrist 27.3406
rhand -11.9133 -26.2164
rfingers 7.12502
rthumb 14.1405 -55.7152
lclavicle 1.96797e-014 -3.97569e-015
lhumerus -18.1125 -4.98863 87.6958
lradius 43.677
lwrist -11.9762
lhand -14.5057 21.647
lfingers 7.12502
lthumb 11.6415 51.3036
rfemur -34.2789 2.38025 11.6177
rtibia 9.38163
rfoot -7.09079 -18.5868
rtoes 0.25854
lfemur 3.71373 -3.7353 -24.5012
ltibia 11.5443
lfoot -17.2355 4.10714
ltoes -6.57977
273
root -8.17083 17.6506 4.86936 211.921 -85.9345 -205.278
lowerback -1.5644 -2.38353 -2.67406
upperback -1.38198 -3.18094 3.15349
thorax -0.219291 -1.58141 4.69894
lowerneck -15.972 -1.66903 -4.64126
upperneck 19.4179 -2.76229 6.48231
head 8.86445 -1.0239 2.63071
rclavicle 3.37934e-014 -2.06736e-014
rhumerus -34.3104 -26.2398 -67.6795
rradius 14.3854
rwrist 28.6964
rhand -11.8253 -26.4378
rfingers 7.12502
rthumb 14.2253 -55.9306
lclavicle 3.37934e-014 -2.06736e-014
lhumerus -17.7796 -5.03394 87.7436
lradius 43.6099
lwrist -12.1634
lhand -14.5036 21.6761
lfingers 7.12502
lthumb 11.6435 51.3325
rfemur -34.669 2.60405 11.4681
rtibia 8.98388
rfoot -7.87842 -18.0871
rtoes -1.3349
lfemur 3.94436 -3.63887 -24.5062
ltibia 11.8333
lfoot -17.5997 3.88503
ltoes -7.21226
274
root -8.32009 17.6209 4.84959 212.975 -85.9101 -206.2
lowerback -1.52241 -2.38116 -2.72406
upperback -1.3727 -3.17791 3.17195
thorax -0.229914 -1.57949 4.74816
lowerneck -16.0263 -1.69208 -4.65876
upperneck 19.2721 -2.80826 6.62483
head 8.83001 -1.03015 2.67505
rclavicle -4.87022e-015 -7.95139e-015
rhumerus -35.1241 -27.3759 -66.6603
rradius 14.0508
rwrist 29.8974
rhand -11.7384 -26.6318
rfingers 7.12502
rthumb 14.3091 -56.1188
lclavicle -4.87022e-015 -7.95139e-015
lhumerus -17.4632 -5.04588 87.796
lradius 43.5026
lwrist -12.4185
lhand -14.5033 21.6768
lfingers 7.12502
lthumb 11.6438 51.3333
rfemur -35.2714 2.11688 11.7625
rtibia 9.49462
rfoot -8.22496 -17.0499
rtoes -2.30595
lfemur 4.16672 -3.58855 -24.5194
ltibia 12.1874
lfoot -17.9477 3.69078
ltoes -7.90889
275
root -8.46897 17.5934 4.83022 213.855 -85.8612 -206.994
lowerback -1.41584 -2.37035 -2.76041
upperback -1.34103 -3.16442 3.17995
thorax -0.256052 -1.57225 4.78137
lowerneck -16.0973 -1.71238 -4.66635
upperneck 19.1196 -2.84903 6.75778
head 8.79587 -1.03389 2.71496
rclavicle 1.33186e-014 2.38542e-015
rhumerus -35.8892 -28.3002 -65.7658
rradius 13.7892
rwrist 30.8945
rhand -11.6543 -26.7941
rfingers 7.12502
rthumb 14.3902 -56.2753
lclavicle 1.33186e-014 2.38542e-015
lhumerus -17.1591 -5.01311 87.8533
lradius 43.348
lwrist -12.7506
lhand -14.5295 21.6319
lfingers 7.12502
lthumb 11.6185 51.2898
rfemur -35.9904 1.20304 12.3597
rtibia 10.7113
rfoot -8.05059 -15.7857
rtoes -2.57141
lfemur 4.41174 -3.5931 -24.5613
ltibia 12.5907
lfoot -18.2741 3.53629
ltoes -8.65328
276
root -8.6188 17.569 4.81121 214.611 -85.7963 -207.726
lowerback -1.24461 -2.357 -2.78417
upperback -1.28014 -3.14842 3.17883
thorax -0.289788 -1.56395 4.80013
lowerneck -16.1865 -1.72723 -4.65805
upperneck 18.9618 -2.87965 6.8689
head 8.7622 -1.03359 2.74588
rclavicle -1.27222e-014 -1.98785e-014
rhumerus -36.5828 -29.0104 -65.0159
rradius 13.5926
rwrist 31.698
rhand -11.5655 -26.9088
rfingers 7.12502
rthumb 14.4757 -56.3839
lclavicle -1.27222e-014 -1.98785e-014
lhumerus -16.8778 -4.92889 87.915
lradius 43.1549
lwrist -13.1438
lhand -14.5802 21.5463
lfingers 7.12502
lthumb 11.5696 51.2069
rfemur -36.7033 0.225597 13.0542
rtibia 12.359
rfoot -7.41858 -14.6481
rtoes -2.11273
lfemur 4.70726 -3.64639 -24.6366
ltibia 13.0331
lfoot -18.5755 3.4251
ltoes -9.47872
277
root -8.77077 17.5482 4.79232 215.42 -85.7283 -208.569
lowerback -1.03206 -2.34827 -2.80299
upperback -1.18772 -3.13919 3.16999
thorax -0.31424 -1.55964 4.80889
lowerneck -16.2963 -1.73571 -4.64136
upperneck 18.7998 -2.89896 6.96683
head 8.72984 -1.0283 2.77219
rclavicle -2.49475e-014 3.97569e-014
rhumerus -37.1907 -29.5434 -64.4039
rradius 13.4428
rwrist 32.3452
rhand -11.4719 -26.9659
rfingers 7.12502
rthumb 14.5659 -56.4345
lclavicle -2.49475e-014 3.97569e-014
lhumerus -16.6227 -4.78749 87.987
lradius 42.9246
lwrist -13.5862
lhand -14.6594 21.4372
lfingers 7.12502
lthumb 11.4932 51.1021
rfemur -37.3222 -0.583611 13.6835
rtibia 14.205
rfoot -6.48993 -13.8101
rtoes -1.11605
lfemur 5.05368 -3.7412 -24.7499
ltibia 13.5095
lfoot -18.8414 3.35253
ltoes -10.3867
278
root -8.92615 17.5313 4.773 216.324 -85.6799 -209.552
lowerback -0.7983 -2.35381 -2.81219
upperback -1.07043 -3.14964 3.16119
thorax -0.323458 -1.56599 4.81219
lowerneck -16.4248 -1.73619 -4.61591
upperneck 18.6368 -2.90282 7.04113
head 8.69907 -1.01713 2.79084
rclavicle 1.87852e-014 -1.51076e-014
rhumerus -37.7034 -29.8913 -63.9383
rradius 13.3356
rwrist 32.8279
rhand -11.3704 -26.9647
rfingers 7.12502
rthumb 14.6637 -56.4262
lclavicle 1.87852e-014 -1.51076e-014
lhumerus -16.421 -4.58309 88.0707
lradius 42.6709
lwrist -14.0601
lhand -14.7637 21.3113
lfingers 7.12502
lthumb 11.3927 50.9818
rfemur -37.789 -1.13611 14.1827
rtibia 16.085
rfoot -5.49221 -13.2572
rtoes 0.135363
lfemur 5.43976 -3.86234 -24.8814
ltibia 14.0245
lfoot -19.0554 3.30337
ltoes -11.368
